<svg xmlns="http://www.w3.org/2000/svg" data-name="Layer 2" viewBox="-1.6 -3.2 35.2 43.2" x="0px" y="0px"><path d="m26.83,19.64s0,0,0,0c0,0,0-.01,0-.02,0,0,0,.02-.01.03Zm2.15-4.59c-.05-.32-.09-.63-.16-.94-.04-.18-.11-.36-.19-.54-.09-.46-.23-.92-.39-1.37-.19-.67-.4-1.33-.7-1.96-.37-.85-.89-1.63-1.42-2.39-.81-1.12-1.74-2.21-2.89-3.01-.06-.04-.14-.08-.21-.13-.56-.29-1.1-.64-1.68-.89-.43-.18-.87-.32-1.31-.48-.45-.16-.91-.26-1.39-.3-.58-.08-1.15-.15-1.74-.08-.25,0-.5.03-.74.05-.18-.01-.36-.02-.53-.03-.09-.02-.17-.04-.26-.04-.44-.06-.88.01-1.31.09-.82.14-1.47.73-2.18,1.12-.67.36-1.29.78-1.9,1.23-.39.26-.78.52-1.12.84-.36.35-.75.67-1.13,1-.36.33-.69.68-1.04,1.02-.54.54-.96,1.18-1.44,1.77-.92,1.21-1.53,2.64-1.99,4.08-.25.72-.29,1.49-.33,2.25-.01.55.04,1.09.12,1.63.05.57.14,1.14.22,1.7-.02.69.04,1.39.22,2.06.22.72.47,1.43.75,2.14.07.14.16.26.24.39.36.96.85,1.89,1.63,2.58.52.45,1.11.82,1.73,1.13.38.19.76.41,1.18.53.6.18,1.22.22,1.84.27.7.16,1.42.24,2.13.29.44.02.88.02,1.31-.04.66-.02,1.32-.11,1.97-.2.72-.09,1.44-.22,2.14-.4.66-.17,1.34-.29,1.98-.51.9-.3,1.74-.74,2.54-1.24,1.37-.83,2.52-1.99,3.53-3.24.43-.55.85-1.11,1.22-1.71.38-.66.64-1.38.91-2.08.08-.22.16-.44.24-.69.13-.52.08-1.07.14-1.6.1-.76.15-1.53,0-2.29Zm-.97,1.31s0,0,0,.01c0,0,0,0,0,0,0,0,0-.01,0-.02ZM18.49,3.47c.34.04.68.07,1.01.16.87.28,1.77.57,2.56,1.05.31.19.64.34.95.54.52.35.96.79,1.4,1.22-.01,0-.03-.02-.06-.04-.19-.14-.37-.29-.55-.44-.98-.78-2.1-1.36-3.28-1.78-.45-.2-.92-.35-1.38-.5-.24-.08-.48-.16-.72-.23.03,0,.05,0,.08,0ZM3.5,16.44s-.03,0-.04,0c0,0,0,0,0,0,.01-.1.04-.2.06-.3-.01.1-.02.2-.02.3Zm3.62,10.42c-.16-.13-.3-.27-.45-.4,0,0,.02,0,.02,0,.02-.03.03-.06.04-.09.19.15.38.3.58.44.36.33.76.63,1.17.91-.52-.16-.96-.48-1.36-.84Zm13.56.46s.08-.04.13-.06c0,0,.02,0,.02,0-.05.02-.1.03-.15.05Zm3.09-1.8s.02-.01.03-.02c.49-.43,1-.87,1.47-1.33-.46.49-.97.94-1.49,1.35Zm.28-1.68c-.93,1.02-1.89,2.02-3.04,2.79-.71.48-1.53.75-2.35,1.01-.19.07-.4.11-.59.16-.01,0-.03-.01-.04,0-.02,0-.03.02-.04.03-.42.1-.84.18-1.27.24-.12.02-.24.05-.35.07-.08-.01-.16.02-.24.03-.5.12-1.02.1-1.53.15-1.47,0-2.99-.05-4.4-.49-.73-.27-1.42-.63-2.09-1.02-.44-.23-.77-.53-1.12-.9-.71-.75-1.25-1.58-1.73-2.49-.25-.45-.47-.92-.66-1.4-.02-.22-.08-.43-.11-.65-.1-.72-.18-1.45-.34-2.16-.12-.62-.22-1.24-.26-1.87.04-.35.09-.7.15-1.05.23-1.26.57-2.57,1.1-3.75.28-.55.63-1.07.96-1.59.91-1.45,1.99-2.8,3.31-3.9.43-.42.95-.73,1.46-1.05.6-.41,1.24-.77,1.87-1.11.14-.06.29-.12.43-.18.55-.21,1.14-.26,1.71-.37.68-.16,1.38-.08,2.07-.02.93.2,1.85.46,2.75.79.7.37,1.37.81,2,1.28.5.42.96.89,1.45,1.32,1.25,1.21,2.29,2.62,3.29,4.03.14.26.25.55.38.82.04.09.08.17.18.2.25.53.33,1.11.43,1.68.09.53.2,1.03.19,1.57-.05.61-.03,1.22-.08,1.83-.02.2-.06.4-.09.59-.2.4-.4.8-.6,1.22-.3.61-.57,1.24-.92,1.83-.53.86-1.18,1.65-1.87,2.38Zm4.13-4.3c-.21.57-.45,1.15-.71,1.71-.37.68-.85,1.28-1.31,1.89,0,0,0,0-.01.01.55-.77.97-1.62,1.41-2.45.28-.51.54-1.04.77-1.58-.05.14-.1.27-.15.42Zm-2.17,4.85c-.37.57-.89,1.05-1.39,1.52-.29.26-.6.49-.92.7-.15.11-.07.36.11.38.55-.12,2.3-1.82,2.56-2.36.08-.21-.18-.38-.35-.24ZM7.04,7.46c.4-.63.98-1.11,1.57-1.55.49-.39.99-.77,1.54-1.08.24-.15.02-.5-.22-.36-.54.3-1.04.67-1.52,1.06-.55.42-1.09.86-1.52,1.41-.14.18-.25.38-.37.58-.06.1-.01.24.09.29.24.12.34-.19.44-.34Z"/><text x="0.0" y="37.6" font-size="1.6" font-weight="bold" font-family="Arbeit Regular, Helvetica, Arial-Unicode, Arial, Sans-serif" fill="#000000">Created by Yopi Kwb</text><text x="0.0" y="39.2" font-size="1.6" font-weight="bold" font-family="Arbeit Regular, Helvetica, Arial-Unicode, Arial, Sans-serif" fill="#000000">from Noun Project</text></svg>