<?xml version="1.0" encoding="UTF-8" standalone="no"?>
<svg
   xmlns:dc="http://purl.org/dc/elements/1.1/"
   xmlns:cc="http://creativecommons.org/ns#"
   xmlns:rdf="http://www.w3.org/1999/02/22-rdf-syntax-ns#"
   xmlns:svg="http://www.w3.org/2000/svg"
   xmlns="http://www.w3.org/2000/svg"
   viewBox="0 0 793.70667 1122.52"
   height="1122.52"
   width="793.70667"
   xml:space="preserve"
   id="svg2"
   version="1.1"><metadata
     id="metadata8"><rdf:RDF><cc:Work
         rdf:about=""><dc:format>image/svg+xml</dc:format><dc:type
           rdf:resource="http://purl.org/dc/dcmitype/StillImage" /></cc:Work></rdf:RDF></metadata><defs
     id="defs6"><clipPath
       id="clipPath20"
       clipPathUnits="userSpaceOnUse"><path
         id="path18"
         d="M 0,0 H 595.28 V 841.89 H 0 Z" /></clipPath><clipPath
       id="clipPath30"
       clipPathUnits="userSpaceOnUse"><path
         id="path28"
         d="m 259.1253,805.5904 27.8416,-6.2584 -76.7315,-341.3523 -27.8416,6.2584 z" /></clipPath><clipPath
       id="clipPath36"
       clipPathUnits="userSpaceOnUse"><path
         id="path34"
         d="M 0,0 H 595.28 V 841.89 H 0 Z" /></clipPath><clipPath
       id="clipPath46"
       clipPathUnits="userSpaceOnUse"><path
         id="path44"
         d="m 255.2442,655.4525 16.7134,101.186 3.9465,-0.6519 -16.7134,-101.186 z" /></clipPath><clipPath
       id="clipPath52"
       clipPathUnits="userSpaceOnUse"><path
         id="path50"
         d="M 0,0 H 595.28 V 841.89 H 0 Z" /></clipPath><clipPath
       id="clipPath64"
       clipPathUnits="userSpaceOnUse"><path
         id="path62"
         d="m 177.8521,639.264 h 111.9167 v 50.67669 H 177.8521 Z" /></clipPath><clipPath
       id="clipPath78"
       clipPathUnits="userSpaceOnUse"><path
         id="path76"
         d="m 132.8105,639.264 h 102 v 50.67668 h -102 z" /></clipPath><clipPath
       id="clipPath88"
       clipPathUnits="userSpaceOnUse"><path
         id="path86"
         d="m 177.8521,639.264 h 111.9167 v 50.67669 H 177.8521 Z" /></clipPath><clipPath
       id="clipPath100"
       clipPathUnits="userSpaceOnUse"><path
         id="path98"
         d="M 607.866,428.3059 551.0114,398.9738 343.1512,801.8719 400.0058,831.204 Z" /></clipPath><clipPath
       id="clipPath106"
       clipPathUnits="userSpaceOnUse"><path
         id="path104"
         d="M 0,0 H 595.28 V 841.89 H 0 Z" /></clipPath><clipPath
       id="clipPath116"
       clipPathUnits="userSpaceOnUse"><path
         id="path114"
         d="m 477.5851,663.6737 -55.1067,137.9988 2.786,1.1126 55.1068,-137.9989 z" /></clipPath><clipPath
       id="clipPath122"
       clipPathUnits="userSpaceOnUse"><path
         id="path120"
         d="M 0,0 H 595.28 V 841.89 H 0 Z" /></clipPath><clipPath
       id="clipPath134"
       clipPathUnits="userSpaceOnUse"><path
         id="path132"
         d="m 341.4984,497.9809 h 5.5794 V 802.615 h -5.5794 z" /></clipPath><clipPath
       id="clipPath144"
       clipPathUnits="userSpaceOnUse"><path
         id="path142"
         d="m 349.7017,497.9809 h 3.17421 v 167.6214 h -3.17421 z" /></clipPath><clipPath
       id="clipPath154"
       clipPathUnits="userSpaceOnUse"><path
         id="path152"
         d="m 352.6003,497.9809 h 3.17421 v 167.6214 h -3.17421 z" /></clipPath><clipPath
       id="clipPath164"
       clipPathUnits="userSpaceOnUse"><path
         id="path162"
         d="m 336.1175,496.9809 h 3.53354 v 175.8745 h -3.53354 z" /></clipPath><clipPath
       id="clipPath174"
       clipPathUnits="userSpaceOnUse"><path
         id="path172"
         d="m 327.9469,498.9809 h 3.17421 v 167.6214 h -3.17421 z" /></clipPath><clipPath
       id="clipPath184"
       clipPathUnits="userSpaceOnUse"><path
         id="path182"
         d="m 422.0677,497.5959 54.6356,221.6802 3.8838,-0.9572 -54.6357,-221.6802 z" /></clipPath><clipPath
       id="clipPath190"
       clipPathUnits="userSpaceOnUse"><path
         id="path188"
         d="M 0,0 H 595.28 V 841.89 H 0 Z" /></clipPath><clipPath
       id="clipPath202"
       clipPathUnits="userSpaceOnUse"><path
         id="path200"
         d="m 253.7433,479.8581 -43.7309,164.1816 3.8652,1.0296 43.7309,-164.1816 z" /></clipPath><clipPath
       id="clipPath208"
       clipPathUnits="userSpaceOnUse"><path
         id="path206"
         d="M 0,0 H 595.28 V 841.89 H 0 Z" /></clipPath><clipPath
       id="clipPath220"
       clipPathUnits="userSpaceOnUse"><path
         id="path218"
         d="m 390.7607,494.7256 -27.3492,84.3914 2.1405,0.6936 27.3491,-84.3913 z" /></clipPath><clipPath
       id="clipPath226"
       clipPathUnits="userSpaceOnUse"><path
         id="path224"
         d="M 0,0 H 595.28 V 841.89 H 0 Z" /></clipPath><clipPath
       id="clipPath238"
       clipPathUnits="userSpaceOnUse"><path
         id="path236"
         d="m 465.317,479.7249 -75.055,105.315 1.8323,1.3058 75.055,-105.315 z" /></clipPath><clipPath
       id="clipPath244"
       clipPathUnits="userSpaceOnUse"><path
         id="path242"
         d="M 0,0 H 595.28 V 841.89 H 0 Z" /></clipPath><clipPath
       id="clipPath256"
       clipPathUnits="userSpaceOnUse"><path
         id="path254"
         d="m 295.9807,487.1931 31.9787,92.663 2.8359,-0.9786 -31.9787,-92.663 z" /></clipPath><clipPath
       id="clipPath262"
       clipPathUnits="userSpaceOnUse"><path
         id="path260"
         d="M 0,0 H 595.28 V 841.89 H 0 Z" /></clipPath><clipPath
       id="clipPath274"
       clipPathUnits="userSpaceOnUse"><path
         id="path272"
         d="m 363.3788,494.8589 -10.9048,79.7455 2.9724,0.4065 10.9047,-79.7455 z" /></clipPath><clipPath
       id="clipPath280"
       clipPathUnits="userSpaceOnUse"><path
         id="path278"
         d="M 0,0 H 595.28 V 841.89 H 0 Z" /></clipPath><clipPath
       id="clipPath292"
       clipPathUnits="userSpaceOnUse"><path
         id="path290"
         d="m 337.5725,497.1533 v 95.5999 h 6 v -95.5999 z" /></clipPath><clipPath
       id="clipPath298"
       clipPathUnits="userSpaceOnUse"><path
         id="path296"
         d="M 0,0 H 595.28 V 841.89 H 0 Z" /></clipPath><clipPath
       id="clipPath310"
       clipPathUnits="userSpaceOnUse"><path
         id="path308"
         d="m 198.0009,584.1958 -96.201,17.584 0.5394,2.9511 96.201,-17.584 z" /></clipPath><clipPath
       id="clipPath316"
       clipPathUnits="userSpaceOnUse"><path
         id="path314"
         d="M 0,0 H 595.28 V 841.89 H 0 Z" /></clipPath><clipPath
       id="clipPath328"
       clipPathUnits="userSpaceOnUse"><path
         id="path326"
         d="M 273.8937,504.3645 66.2162,428.2303 65.18361,431.0469 272.8611,507.1812 Z" /></clipPath><clipPath
       id="clipPath334"
       clipPathUnits="userSpaceOnUse"><path
         id="path332"
         d="M 0,0 H 595.28 V 841.89 H 0 Z" /></clipPath><clipPath
       id="clipPath346"
       clipPathUnits="userSpaceOnUse"><path
         id="path344"
         d="m 178.0299,573.7494 -47.8782,4.0041 0.2292,2.7405 47.8782,-4.0042 z" /></clipPath><clipPath
       id="clipPath352"
       clipPathUnits="userSpaceOnUse"><path
         id="path350"
         d="M 0,0 H 595.28 V 841.89 H 0 Z" /></clipPath><clipPath
       id="clipPath364"
       clipPathUnits="userSpaceOnUse"><path
         id="path362"
         d="m 126.6065,579.1216 66.8805,-3.505 -0.9686,-18.4827 -66.8806,3.5051 z" /></clipPath><clipPath
       id="clipPath370"
       clipPathUnits="userSpaceOnUse"><path
         id="path368"
         d="m 127.5875,575.0647 64.4998,-3.3802 -0.471,-8.9877 -64.4998,3.3803 z" /></clipPath><clipPath
       id="clipPath376"
       clipPathUnits="userSpaceOnUse"><path
         id="path374"
         d="M 0,0 H 595.28 V 841.89 H 0 Z" /></clipPath><clipPath
       id="clipPath416"
       clipPathUnits="userSpaceOnUse"><path
         id="path414"
         d="m 178.3685,544.1377 -62.2521,-8.5832 -0.4098,2.9718 62.2522,8.5832 z" /></clipPath><clipPath
       id="clipPath422"
       clipPathUnits="userSpaceOnUse"><path
         id="path420"
         d="M 0,0 H 595.28 V 841.89 H 0 Z" /></clipPath><clipPath
       id="clipPath434"
       clipPathUnits="userSpaceOnUse"><path
         id="path432"
         d="m 116.2547,554.9848 65.8935,5.7649 1.9373,-22.1433 -65.8935,-5.7649 z" /></clipPath><clipPath
       id="clipPath440"
       clipPathUnits="userSpaceOnUse"><path
         id="path438"
         d="M 0,0 H 595.28 V 841.89 H 0 Z" /></clipPath><clipPath
       id="clipPath468"
       clipPathUnits="userSpaceOnUse"><path
         id="path466"
         d="m 186.0046,514.892 -2.1898,31.3166 17.1546,1.1995 2.1898,-31.3165 z" /></clipPath><clipPath
       id="clipPath474"
       clipPathUnits="userSpaceOnUse"><path
         id="path472"
         d="M 0,0 H 595.28 V 841.89 H 0 Z" /></clipPath></defs><g
     transform="matrix(1.3333333,0,0,-1.3333333,0,1122.52)"
     id="g10"><g
       id="g12" /><g
       id="g14"><g
         clip-path="url(#clipPath20)"
         id="g16"><path
           id="path22"
           style="fill:#ffffff;fill-opacity:1;fill-rule:nonzero;stroke:none"
           d="M 0,841.89 H 596 V -0.1099854 H 0 Z" /></g></g><g
       id="g24"><g
         clip-path="url(#clipPath30)"
         id="g26"><g
           clip-path="url(#clipPath36)"
           id="g32"><path
             id="path38"
             style="fill:#efefef;fill-opacity:1;fill-rule:nonzero;stroke:none"
             d="M 272.8268,801.4855 209.479,459.1746 183.5888,464.9944 Z" /></g></g></g><g
       id="g40"><g
         clip-path="url(#clipPath46)"
         id="g42"><g
           clip-path="url(#clipPath52)"
           id="g48"><g
             transform="matrix(0.1629669,0.9866315,0.9866315,-0.1629669,257.3804,656.1132)"
             id="g54"><path
               id="path56"
               style="fill:none;stroke:#000000;stroke-width:2;stroke-linecap:butt;stroke-linejoin:miter;stroke-miterlimit:4;stroke-dasharray:none;stroke-opacity:1"
               d="M 0,0 H 100.557" /></g></g></g></g><g
       id="g58"><g
         clip-path="url(#clipPath64)"
         id="g60"><path
           id="path66"
           style="fill:#093c07;fill-opacity:1;fill-rule:nonzero;stroke:none"
           d="m 272.4067,681.547 c 21.3161,-9.3583 21.3161,-24.531 0,-33.8893 -21.3161,-9.3583 -55.8764,-9.3583 -77.1925,0 -21.3161,9.3583 -21.3161,24.531 0,33.8893 21.3161,9.3583 55.8764,9.3583 77.1925,0 z" /><g
           transform="matrix(1,0,0,-1,179.2271,688.5657)"
           id="g68"><path
             id="path70"
             style="fill:none;stroke:#206100;stroke-width:0.75;stroke-linecap:butt;stroke-linejoin:miter;stroke-miterlimit:4;stroke-dasharray:none;stroke-opacity:1"
             d="m 93.17958,7.018701 c 21.31612,9.358269 21.31612,24.531019 0,33.889279 -21.31612,9.35827 -55.87637,9.35827 -77.19249,0 -21.316119,-9.35826 -21.316119,-24.53101 0,-33.889279 21.31612,-9.358268 55.87637,-9.358268 77.19249,0 z" /></g></g></g><g
       id="g72"><g
         clip-path="url(#clipPath78)"
         id="g74"><path
           id="path80"
           style="fill:#ffffff;fill-opacity:1;fill-rule:nonzero;stroke:none"
           d="m 133.8105,640.264 h 100 v 48.67668 h -100 z" /></g></g><g
       id="g82"><g
         clip-path="url(#clipPath88)"
         id="g84"><g
           transform="matrix(1,0,0,-1,179.2271,688.5657)"
           id="g90"><path
             id="path92"
             style="fill:none;stroke:#206100;stroke-width:0.75;stroke-linecap:butt;stroke-linejoin:miter;stroke-miterlimit:4;stroke-dasharray:none;stroke-opacity:1"
             d="m 93.17958,7.018701 c 21.31612,9.358269 21.31612,24.531019 0,33.889279 -21.31612,9.35827 -55.87637,9.35827 -77.19249,0 -21.316119,-9.35826 -21.316119,-24.53101 0,-33.889279 21.31612,-9.358268 55.87637,-9.358268 77.19249,0 z" /></g></g></g><g
       id="g94"><g
         clip-path="url(#clipPath100)"
         id="g96"><g
           clip-path="url(#clipPath106)"
           id="g102"><path
             id="path108"
             style="fill:#efefef;fill-opacity:1;fill-rule:nonzero;stroke:none"
             d="m 578.9802,414.5286 -234.4818,386.9131 55.0772,28.4151 z" /></g></g></g><g
       id="g110"><g
         clip-path="url(#clipPath116)"
         id="g112"><g
           clip-path="url(#clipPath122)"
           id="g118"><g
             transform="matrix(-0.3708523,0.9286919,0.9286919,0.3708523,478.6073,665.1586)"
             id="g124"><path
               id="path126"
               style="fill:none;stroke:#000000;stroke-width:1;stroke-linecap:butt;stroke-linejoin:miter;stroke-miterlimit:4;stroke-dasharray:none;stroke-opacity:1"
               d="M 0,0 H 146.5949" /></g></g></g></g><g
       id="g128"><g
         clip-path="url(#clipPath134)"
         id="g130"><path
           id="path136"
           style="fill:#000000;fill-opacity:1;fill-rule:nonzero;stroke:none"
           d="m 342.4984,498.9809 h 3.5794 V 801.615 h -3.5794 z" /></g></g><g
       id="g138"><g
         clip-path="url(#clipPath144)"
         id="g140"><path
           id="path146"
           style="fill:#000000;fill-opacity:1;fill-rule:nonzero;stroke:none"
           d="m 350.7017,498.9809 h 1.17421 v 165.6214 h -1.17421 z" /></g></g><g
       id="g148"><g
         clip-path="url(#clipPath154)"
         id="g150"><path
           id="path156"
           style="fill:#000000;fill-opacity:1;fill-rule:nonzero;stroke:none"
           d="m 353.6003,498.9809 h 1.17421 v 165.6214 h -1.17421 z" /></g></g><g
       id="g158"><g
         clip-path="url(#clipPath164)"
         id="g160"><path
           id="path166"
           style="fill:#000000;fill-opacity:1;fill-rule:nonzero;stroke:none"
           d="m 337.1175,497.9809 h 1.53354 v 173.8745 h -1.53354 z" /></g></g><g
       id="g168"><g
         clip-path="url(#clipPath174)"
         id="g170"><path
           id="path176"
           style="fill:#000000;fill-opacity:1;fill-rule:nonzero;stroke:none"
           d="m 328.9469,499.9809 h 1.17421 v 165.6214 h -1.17421 z" /></g></g><g
       id="g178"><g
         clip-path="url(#clipPath184)"
         id="g180"><g
           clip-path="url(#clipPath190)"
           id="g186"><g
             transform="matrix(0.2393005,0.9709455,0.9709455,-0.2393005,424.2489,498.0882)"
             id="g192"><path
               id="path194"
               style="fill:none;stroke:#000000;stroke-width:2;stroke-linecap:butt;stroke-linejoin:miter;stroke-miterlimit:4;stroke-dasharray:none;stroke-opacity:1"
               d="M 0,0 H 226.3138" /></g></g></g></g><g
       id="g196"><g
         clip-path="url(#clipPath202)"
         id="g198"><g
           clip-path="url(#clipPath208)"
           id="g204"><g
             transform="matrix(-0.2573835,0.9663093,0.9663093,0.2573835,255.4185,481.3392)"
             id="g210"><path
               id="path212"
               style="fill:none;stroke:#000000;stroke-width:2;stroke-linecap:butt;stroke-linejoin:miter;stroke-miterlimit:4;stroke-dasharray:none;stroke-opacity:1"
               d="M 0,0 H 167.9058" /></g></g></g></g><g
       id="g214"><g
         clip-path="url(#clipPath220)"
         id="g216"><g
           clip-path="url(#clipPath226)"
           id="g222"><g
             transform="matrix(-0.3082899,0.9512925,0.9512925,0.3082899,391.5226,496.0237)"
             id="g228"><path
               id="path230"
               style="fill:none;stroke:#000000;stroke-width:0.25;stroke-linecap:butt;stroke-linejoin:miter;stroke-miterlimit:4;stroke-dasharray:none;stroke-opacity:1"
               d="M 0,0 H 86.71233" /></g></g></g></g><g
       id="g232"><g
         clip-path="url(#clipPath238)"
         id="g234"><g
           clip-path="url(#clipPath244)"
           id="g240"><g
             transform="matrix(-0.5803672,0.8143549,0.8143549,0.5803672,465.6528,481.1921)"
             id="g246"><path
               id="path248"
               style="fill:none;stroke:#000000;stroke-width:0.25;stroke-linecap:butt;stroke-linejoin:miter;stroke-miterlimit:4;stroke-dasharray:none;stroke-opacity:1"
               d="M 0,0 H 127.3232" /></g></g></g></g><g
       id="g250"><g
         clip-path="url(#clipPath256)"
         id="g252"><g
           clip-path="url(#clipPath262)"
           id="g258"><g
             transform="matrix(0.3262273,0.9452914,0.9452914,-0.3262273,297.7248,487.6491)"
             id="g264"><path
               id="path266"
               style="fill:none;stroke:#b51700;stroke-width:1;stroke-linecap:butt;stroke-linejoin:miter;stroke-miterlimit:4;stroke-dasharray:none;stroke-opacity:1"
               d="M 0,0 H 96.02585" /></g></g></g></g><g
       id="g268"><g
         clip-path="url(#clipPath274)"
         id="g270"><g
           clip-path="url(#clipPath280)"
           id="g276"><g
             transform="matrix(-0.1354837,0.9907796,0.9907796,0.1354837,364.7295,496.0529)"
             id="g282"><path
               id="path284"
               style="fill:none;stroke:#b51700;stroke-width:1;stroke-linecap:butt;stroke-linejoin:miter;stroke-miterlimit:4;stroke-dasharray:none;stroke-opacity:1"
               d="M 0,0 H 78.48761" /></g></g></g></g><g
       id="g286"><g
         clip-path="url(#clipPath292)"
         id="g288"><g
           clip-path="url(#clipPath298)"
           id="g294"><g
             transform="matrix(0,1,1,0,340.5725,498.1533)"
             id="g300"><path
               id="path302"
               style="fill:none;stroke:#b51700;stroke-width:4;stroke-linecap:butt;stroke-linejoin:miter;stroke-miterlimit:4;stroke-dasharray:none;stroke-opacity:1"
               d="M 0,0 H 93.59987" /></g></g></g></g><g
       id="g304"><g
         clip-path="url(#clipPath310)"
         id="g306"><g
           clip-path="url(#clipPath316)"
           id="g312"><g
             transform="matrix(-0.9837022,0.1798052,0.1798052,0.9837022,197.2869,585.8511)"
             id="g318"><path
               id="path320"
               style="fill:none;stroke:#000000;stroke-width:1;stroke-linecap:butt;stroke-linejoin:miter;stroke-miterlimit:4;stroke-dasharray:none;stroke-opacity:1"
               d="M 0,0 H 95.79479" /></g></g></g></g><g
       id="g322"><g
         clip-path="url(#clipPath328)"
         id="g324"><g
           clip-path="url(#clipPath334)"
           id="g330"><g
             transform="matrix(-0.938897,-0.3441982,-0.3441982,0.938897,272.4385,505.4287)"
             id="g336"><path
               id="path338"
               style="fill:none;stroke:#000000;stroke-width:1;stroke-linecap:butt;stroke-linejoin:miter;stroke-miterlimit:4;stroke-dasharray:none;stroke-opacity:1"
               d="M 0,0 H 219.1931" /></g></g></g></g><g
       id="g340"><g
         clip-path="url(#clipPath346)"
         id="g342"><g
           clip-path="url(#clipPath352)"
           id="g348"><g
             transform="matrix(-0.9965211,0.08334112,0.08334112,0.9965211,177.148,575.2029)"
             id="g354"><path
               id="path356"
               style="fill:none;stroke:#000000;stroke-width:0.75;stroke-linecap:butt;stroke-linejoin:miter;stroke-miterlimit:4;stroke-dasharray:none;stroke-opacity:1"
               d="M 0,0 H 46.04536" /></g></g></g></g><g
       id="g358"><g
         clip-path="url(#clipPath364)"
         id="g360"><g
           clip-path="url(#clipPath370)"
           id="g366"><g
             clip-path="url(#clipPath376)"
             id="g372"><g
               transform="rotate(-3.0000003,10870.96,-2197.7613)"
               id="g378"><text
                 id="text382"
                 style="font-variant:normal;font-weight:normal;font-size:8px;font-family:AmericanTypewriter;-inkscape-font-specification:AmericanTypewriter;writing-mode:lr-tb;fill:#000000;fill-opacity:1;fill-rule:nonzero;stroke:none"
                 transform="matrix(1,0,0,-1,0,2)"><tspan
                   id="tspan380"
                   y="0"
                   x="0 6.112 11.76 15.512">Foll</tspan></text>
</g><g
               transform="rotate(-3.0000003,10870.96,-2197.7613)"
               id="g384"><text
                 id="text388"
                 style="font-variant:normal;font-weight:normal;font-size:7px;font-family:AmericanTypewriter;-inkscape-font-specification:AmericanTypewriter;writing-mode:lr-tb;fill:#000000;fill-opacity:1;fill-rule:nonzero;stroke:none"
                 transform="matrix(1,0,0,-1,19.264,2)"><tspan
                   id="tspan386"
                   y="0"
                   x="0">o</tspan></text>
</g><g
               transform="rotate(-3.0000003,10870.96,-2197.7613)"
               id="g390"><text
                 id="text394"
                 style="font-variant:normal;font-weight:normal;font-size:6px;font-family:AmericanTypewriter;-inkscape-font-specification:AmericanTypewriter;writing-mode:lr-tb;fill:#000000;fill-opacity:1;fill-rule:nonzero;stroke:none"
                 transform="matrix(1,0,0,-1,24.206,2)"><tspan
                   id="tspan392"
                   y="0"
                   x="0">w</tspan></text>
</g><g
               transform="rotate(-3.0000003,10870.96,-2197.7613)"
               id="g396" /><g
               transform="rotate(-3.0000003,10870.96,-2197.7613)"
               id="g398"><text
                 id="text402"
                 style="font-variant:normal;font-weight:normal;font-size:6px;font-family:AmericanTypewriter;-inkscape-font-specification:AmericanTypewriter;writing-mode:lr-tb;fill:#000000;fill-opacity:1;fill-rule:nonzero;stroke:none"
                 transform="matrix(1,0,0,-1,32.022,2)"><tspan
                   id="tspan400"
                   y="0"
                   x="0">t</tspan></text>
</g><g
               transform="rotate(-3.0000003,10870.96,-2197.7613)"
               id="g404"><text
                 id="text408"
                 style="font-variant:normal;font-weight:normal;font-size:5px;font-family:AmericanTypewriter;-inkscape-font-specification:AmericanTypewriter;writing-mode:lr-tb;fill:#000000;fill-opacity:1;fill-rule:nonzero;stroke:none"
                 transform="matrix(1,0,0,-1,35.382,2)"><tspan
                   id="tspan406"
                   y="0"
                   x="0 3.9849999">he</tspan></text>
</g></g></g></g></g><g
       id="g410"><g
         clip-path="url(#clipPath416)"
         id="g412"><g
           clip-path="url(#clipPath422)"
           id="g418"><g
             transform="matrix(-0.9906283,-0.1365858,-0.1365858,0.9906283,177.173,545.487)"
             id="g424"><path
               id="path426"
               style="fill:none;stroke:#000000;stroke-width:1;stroke-linecap:butt;stroke-linejoin:miter;stroke-miterlimit:4;stroke-dasharray:none;stroke-opacity:1"
               d="M 0,0 H 60.8411" /></g></g></g></g><g
       id="g428"><g
         clip-path="url(#clipPath434)"
         id="g430"><g
           clip-path="url(#clipPath440)"
           id="g436"><g
             transform="rotate(4.9999998,-6159.2078,1660.7596)"
             id="g442"><text
               id="text446"
               style="font-variant:normal;font-weight:normal;font-size:7px;font-family:AmericanTypewriter;-inkscape-font-specification:AmericanTypewriter;writing-mode:lr-tb;fill:#000000;fill-opacity:1;fill-rule:nonzero;stroke:none"
               transform="matrix(1,0,0,-1,0,2)"><tspan
                 id="tspan444"
                 y="0"
                 x="0 7.6160002 13.195 16.485001">Whit</tspan></text>
</g><g
             transform="rotate(4.9999998,-6159.2078,1660.7596)"
             id="g448"><text
               id="text452"
               style="font-variant:normal;font-weight:normal;font-size:6px;font-family:AmericanTypewriter;-inkscape-font-specification:AmericanTypewriter;writing-mode:lr-tb;fill:#000000;fill-opacity:1;fill-rule:nonzero;stroke:none"
               transform="matrix(1,0,0,-1,20.405,2)"><tspan
                 id="tspan450"
                 y="0"
                 x="0">e</tspan></text>
</g><g
             transform="rotate(4.9999998,-6159.2078,1660.7596)"
             id="g454" /><g
             transform="rotate(4.9999998,-6159.2078,1660.7596)"
             id="g456"><text
               id="text460"
               style="font-variant:normal;font-weight:normal;font-size:5.5px;font-family:AmericanTypewriter;-inkscape-font-specification:AmericanTypewriter;writing-mode:lr-tb;fill:#000000;fill-opacity:1;fill-rule:nonzero;stroke:none"
               transform="matrix(1,0,0,-1,26.583,2)"><tspan
                 id="tspan458"
                 y="0"
                 x="0 3.5804999 7.5625 11.5445 15.5265 18.1115">rabbit</tspan></text>
</g></g></g></g><g
       id="g462"><g
         clip-path="url(#clipPath468)"
         id="g464"><g
           clip-path="url(#clipPath474)"
           id="g470"><g
             transform="matrix(-0.06975647,0.9975641,0.9975641,0.06975647,187.3963,516.493)"
             id="g476"><path
               id="path478"
               style="fill:none;stroke:#b51700;stroke-width:1;stroke-linecap:butt;stroke-linejoin:miter;stroke-miterlimit:4;stroke-dasharray:none;stroke-opacity:1"
               d="M 7.098253,0 C 3.177888,0 0,3.177888 0,7.098253 0,11.01862 3.177888,14.19651 7.098253,14.19651 H 21.29476 c 3.92036,0 7.09825,-3.17789 7.09825,-7.098257 C 28.39301,3.177888 25.21513,0 21.29476,0 Z" /></g></g></g></g></g></svg>